<svg xmlns="http://www.w3.org/2000/svg" height="800" width="1200" id="svg8" version="1.1" viewBox="-11.82687 -6.37645 102.49954 38.2587"><g transform="translate(122.414 -182.4362)" id="layer1"><g transform="translate(.5 -.5)" id="g135"><path d="M-110.4522 188.9423h-2.884c-.873 0-1.561-.688-1.561-1.561v-2.884c0-.8467.688-1.561 1.561-1.561h2.884c.8467 0 1.561.6879 1.561 1.561v2.884c0 .873-.6879 1.561-1.561 1.561" id="path12" fill="#406eb3" stroke-width=".2646"/><path d="M-117.94 195.4246h-3.2278c-.979 0-1.7463-.7938-1.7463-1.7463v-3.2544c0-.9525.7938-1.7462 1.7463-1.7462h3.2544c.979 0 1.7462.7937 1.7462 1.7462v3.2544c0 .979-.7937 1.7463-1.7727 1.7463" id="path14" fill="#632678" stroke-width=".2646"/><path d="M-118.231 202.1714h-1.9843c-.5821 0-1.0584-.4762-1.0584-1.0583v-1.9844c0-.582.4763-1.0583 1.0584-1.0583h1.9843c.5821 0 1.0584.4762 1.0584 1.0583v1.9844c0 .582-.4763 1.0583-1.0584 1.0583" id="path16" fill="#982881" stroke-width=".2646"/><path class="st3" d="M-112.9128 208.442h-2.3548c-.688 0-1.27-.5556-1.27-1.27v-2.3547c0-.688.5556-1.27 1.27-1.27h2.3548c.6879 0 1.27.5556 1.27 1.27v2.3548c0 .7143-.5557 1.27-1.27 1.27" id="path18" fill="#ba2f7d" stroke-width=".2646"/><path class="st3" d="M-104.3139 190.1329h-1.614c-.4762 0-.873-.3969-.873-.8731v-1.614c0-.4762.3968-.8731.873-.8731h1.614c.4763 0 .8732.3969.8732.8731v1.614c.0265.4762-.3705.8731-.8732.8731" id="path20" fill="#ba2f7d" stroke-width=".2646"/><path class="st4" d="M-68.701 191.2177c.5292 0 .926-.4233.926-.926 0-.5292-.4232-.926-.926-.926-.5291 0-.9525.4232-.9525.926 0 .5027.4234.926.9525.926z" id="path22" fill="#26478d" stroke-width=".2646"/><path class="st4" d="M-102.9116 201.219c-.1323.2116-.3704.3174-.635.3174-.1323 0-.3175-.0265-.4233-.1058-.2117-.1323-.344-.3969-.344-.6614 0-.1323.0265-.2646.1059-.3705l2.1696-3.413-2.1696-3.4132c-.0794-.1058-.1059-.2646-.1059-.3704 0-.2646.1323-.5292.3705-.6615.1322-.0794.2645-.1058.3968-.1058.2646 0 .5027.1058.6615.3175l1.7727 2.8046 1.7992-2.8046c.1323-.2117.3968-.3175.6614-.3175.1323 0 .2646.0265.3969.1058.2381.1323.3704.3969.3704.6615 0 .1323-.0265.2646-.1058.3704l-2.1696 3.4131 2.1696 3.4131c.0793.1059.1058.2382.1058.3705 0 .2645-.1323.5556-.344.6614-.1322.0794-.291.1058-.4233.1058-.2646 0-.4762-.1058-.635-.3175l-1.7991-2.778z" id="path24" fill="#26478d" stroke-width=".2646"/><path class="st4" d="M-95.1593 193.4666c.8202-.7408 1.9315-1.1906 3.1221-1.1906 2.6194 0 4.6831 2.0902 4.6831 4.6831 0 2.5665-2.0902 4.6567-4.6831 4.6567-1.1906 0-2.3019-.4498-3.122-1.1906v3.9952c0 .3969-.3705.7408-.7674.7408-.3704 0-.7673-.344-.7673-.7408v-11.3242c0-.3968.3705-.7408.7673-.7408.4234 0 .7673.344.7673.7408zm3.0956.3705c-1.7462 0-3.122 1.3758-3.122 3.122 0 1.7463 1.3758 3.1221 3.122 3.1221 1.7463 0 3.1221-1.3758 3.1221-3.122.0265-1.7463-1.3494-3.1221-3.122-3.1221z" id="path26" fill="#26478d" stroke-width=".2646"/><path class="st4" d="M-74.0985 196.1125v4.6831c0 .3969-.3704.7408-.7672.7408-.4234 0-.7673-.344-.7673-.7408v-7.6994c0-.3968.3704-.7408.7673-.7408.3704 0 .7408.3175.7672.7144.635-.4763 1.4553-.7673 2.3284-.7673.4762 0 .8466.3704.8466.7673 0 .4233-.3704.7937-.8466.7937-1.1906.0265-2.3284.4498-2.3284 2.249z" id="path28" fill="#26478d" stroke-width=".2646"/><path class="st4" d="M-68.701 192.3554c-.4233 0-.7672.344-.7672.7408v7.7259c0 .3968.3704.7408.7672.7408.3705 0 .7673-.344.7673-.7408v-7.7259c0-.3968-.3704-.7408-.7673-.7408z" id="path30" fill="#26478d" stroke-width=".2646"/><path class="st4" d="M-58.8585 193.0962c0-.3968.3705-.7408.7673-.7408.3705 0 .7673.344.7673.7408v7.7259c0 .3968-.3704.7408-.7673.7408-.4233 0-.7673-.344-.7673-.7408v-.3705c-.8466.7409-1.9314 1.1907-3.122 1.1907-2.6194 0-4.6832-2.0902-4.6832-4.6832 0-2.5664 2.0902-4.6566 4.6832-4.6566 1.1906 0 2.2754.4498 3.122 1.1906zm-3.122 6.985c1.7462 0 3.122-1.3758 3.122-3.122 0-1.7463-1.3758-3.1221-3.122-3.1221-1.7463 0-3.1221 1.3758-3.1221 3.122 0 1.7463 1.3758 3.1221 3.122 3.1221z" id="path32" fill="#26478d" stroke-width=".2646"/><path class="st4" d="M-49.4657 196.2183c0-1.2964-1.1113-2.4077-2.4078-2.4077-1.2435 0-2.4077.5027-2.4077 2.3283v4.6832c0 .3968-.3704.7408-.7673.7408-.4233 0-.7672-.344-.7672-.7408v-7.7259c0-.3968.3704-.7408.7672-.7408.3705 0 .7409.3175.7673.7144.6615-.5027 1.4817-.7673 2.3813-.7673 2.0902 0 3.9687 1.6404 3.9687 3.7041v4.8155c0 .3968-.3704.7408-.7673.7408-.4233 0-.7672-.344-.7672-.7408z" id="path34" fill="#26478d" stroke-width=".2646"/><path class="st4" d="M-104.7637 196.6946c-.0265-2.3813-2.143-4.3921-4.6566-4.3921-2.6194 0-4.6832 2.0902-4.6832 4.6566 0 2.6194 2.0903 4.6832 4.6832 4.6832 1.2435 0 2.4077-.4763 3.2543-1.323.1588-.1322.2646-.3704.2646-.582 0-.4234-.3704-.7673-.7673-.7673-.238 0-.4498.1323-.6085.3175-.5292.5556-1.2965.8202-2.1167.8202-1.561 0-2.831-1.0583-3.0956-2.54h7.0645c.0265 0 .053 0 .0794-.0265.3175-.1323.582-.4498.582-.8467zm-4.6566-2.8575c1.4023 0 2.5664.8996 2.9633 2.1696h-5.9531c.3969-1.27 1.561-2.1696 2.9898-2.1696z" id="path36" fill="#26478d" stroke-width=".2646"/><path class="st4" d="M-76.9295 196.6946c-.0265-2.3813-2.1696-4.3921-4.6567-4.3921-2.6193 0-4.683 2.0902-4.683 4.6566 0 2.6194 2.0901 4.6832 4.683 4.6832 1.2436 0 2.4077-.4763 3.2544-1.323.1588-.1322.2646-.3704.2646-.582 0-.4234-.3704-.7673-.7673-.7673-.2381 0-.4498.1323-.6085.3175-.5292.5556-1.2965.8202-2.1167.8202-1.561 0-2.831-1.0583-3.0956-2.54h7.1173c.3175-.1323.6085-.4763.6085-.8731zm-4.6567-2.8575c1.4023 0 2.5665.8996 2.9634 2.1696h-5.9532c.397-1.27 1.561-2.1696 2.9898-2.1696z" id="path38" fill="#26478d" stroke-width=".2646"/><path class="st4" d="M-46.2907 201.5629c-.0794 0-.1323-.0529-.1323-.1323v-1.2964h-.291c-.0794 0-.1324-.053-.1324-.1323 0-.0794.053-.1323.1323-.1323h.8467c.0794 0 .1323.0529.1323.1323s-.053.1322-.1323.1322h-.291v1.2965c0 .0794-.053.1323-.1323.1323z" id="path40" fill="#26478d" stroke-width=".2646"/><path class="st4" d="M-44.7826 201.5629c-.0794 0-.1059-.0529-.1323-.1058l-.3704-1.0584v1.032c0 .0793-.053.1322-.1323.1322-.0794 0-.1323-.0529-.1323-.1323v-1.3758c0-.1059.0794-.1852.1852-.1852.0794 0 .1587.0529.1852.1323l.3704 1.0847.3704-1.0847c.0265-.0794.1059-.1323.1852-.1323.1059 0 .1853.0794.1853.1852v1.3758c0 .0794-.053.1323-.1323.1323-.0794 0-.1323-.0529-.1323-.1323v-1.0319c-.053.1588-.1323.4234-.2117.635-.1323.4234-.1587.4234-.1587.4234.0264.0794-.0265.1058-.0794.1058z" id="path42" fill="#26478d" stroke-width=".2646"/></g></g><style type="text/css" id="style10">.st3{fill:#ba2f7d}.st4{fill:#26478d}</style></svg>